PathFileType	4	(X/Y/Z)	 1.8Hz3min.trc
DataRate	CameraRate	NumFrames	NumMarkers	Units	OrigDataRate	OrigDataStartFrame	OrigNumFrames
200	200	10	39	m	200	126	1000
Frame#	Time	C7			LSH			RSH			MAN			RASI			LASI			HIPR			HIPL			RPSI			LPSI			COX			RTHI1			RTHI2			RTHI3			RTHI4			RLKN			RMKN			RSHA1			RSHA2			RSHA3			RSHA4			RHEEL			RMET5			RMET1			RTOE			LTHI1			LTHI2			LTHI3			LTHI4			LLKN			LMKN			LSHA1			LSHA2			LSHA3			LSHA4			LHEEL			LMET5			LMET1			LTOE			
		X1	Y1	Z1	X2	Y2	Z2	X3	Y3	Z3	X4	Y4	Z4	X5	Y5	Z5	X6	Y6	Z6	X7	Y7	Z7	X8	Y8	Z8	X9	Y9	Z9	X10	Y10	Z10	X11	Y11	Z11	X12	Y12	Z12	X13	Y13	Z13	X14	Y14	Z14	X15	Y15	Z15	X16	Y16	Z16	X17	Y17	Z17	X18	Y18	Z18	X19	Y19	Z19	X20	Y20	Z20	X21	Y21	Z21	X22	Y22	Z22	X23	Y23	Z23	X24	Y24	Z24	X25	Y25	Z25	X26	Y26	Z26	X27	Y27	Z27	X28	Y28	Z28	X29	Y29	Z29	X30	Y30	Z30	X31	Y31	Z31	X32	Y32	Z32	X33	Y33	Z33	X34	Y34	Z34	X35	Y35	Z35	X36	Y36	Z36	X37	Y37	Z37	X38	Y38	Z38	X39	Y39	Z39	
126	0.6300	-0.185608	1.580491	-0.555391	-0.126531	1.553490	-0.736626	-0.137930	1.557994	-0.358684	-0.044508	1.511893	-0.554081	-0.093901	1.058117	-0.429134	-0.090334	1.053032	-0.668921	-0.163021	1.139685	-0.385712	-0.151300	1.126060	-0.713972	-0.258964	1.134985	-0.508118	-0.257151	1.136493	-0.596991	-0.256658	1.138566	-0.549512	-0.188952	0.879182	-0.349357	-0.177375	0.821106	-0.342456	-0.113256	0.832247	-0.338910	-0.117672	0.893172	-0.347236	-0.155172	0.554494	-0.367732	-0.133808	0.540752	-0.486965	-0.225103	0.435603	-0.345552	-0.234581	0.394610	-0.352476	-0.174401	0.387441	-0.349106	-0.168658	0.427030	-0.345080	-0.281997	0.168608	-0.426438	-0.150667	0.063206	-0.363735	-0.097503	0.070336	-0.426833	-0.071262	0.055871	-0.421105	-0.190651	0.875635	-0.746395	-0.173718	0.816800	-0.754392	-0.110366	0.829009	-0.755028	-0.118225	0.888270	-0.747444	-0.169692	0.550935	-0.724492	-0.142419	0.545741	-0.602732	-0.234084	0.416394	-0.739007	-0.243033	0.377362	-0.732632	-0.181122	0.368982	-0.741209	-0.180885	0.412812	-0.747031	-0.290050	0.154227	-0.667138	-0.150171	0.060031	-0.732771	-0.101066	0.068654	-0.667436	-0.077717	0.054872	-0.674838	
127	0.6350	-0.184551	1.575971	-0.555218	-0.125624	1.548802	-0.736465	-0.136848	1.553345	-0.358599	-0.043610	1.507060	-0.553996	-0.094747	1.053566	-0.429102	-0.091149	1.048530	-0.668821	-0.163578	1.135298	-0.385718	-0.151720	1.121678	-0.713812	-0.259658	1.130819	-0.508016	-0.257771	1.132300	-0.596908	-0.257436	1.134410	-0.549430	-0.189154	0.874615	-0.349328	-0.177219	0.816639	-0.342317	-0.113171	0.828161	-0.338783	-0.117949	0.889038	-0.347218	-0.153235	0.550126	-0.367295	-0.132039	0.536557	-0.486645	-0.223541	0.431387	-0.345406	-0.233206	0.390461	-0.352431	-0.173044	0.383024	-0.349200	-0.167133	0.422588	-0.345071	-0.281973	0.165304	-0.427077	-0.151457	0.058911	-0.364634	-0.098214	0.065877	-0.427857	-0.072056	0.051686	-0.422209	-0.190635	0.871125	-0.746321	-0.173310	0.812421	-0.754394	-0.110026	0.825041	-0.755006	-0.118283	0.884244	-0.747347	-0.167563	0.546676	-0.724994	-0.140749	0.541548	-0.603087	-0.232307	0.412388	-0.739610	-0.241455	0.373379	-0.733180	-0.179530	0.364702	-0.741414	-0.179067	0.408530	-0.747319	-0.289902	0.150842	-0.667218	-0.150297	0.055680	-0.732048	-0.101184	0.064533	-0.666386	-0.077875	0.050762	-0.673633	
128	0.6400	-0.183480	1.571178	-0.555050	-0.124687	1.543864	-0.736288	-0.135771	1.548472	-0.358550	-0.042694	1.501951	-0.553913	-0.095597	1.048765	-0.429042	-0.091959	1.043774	-0.668741	-0.164185	1.130659	-0.385727	-0.152191	1.117024	-0.713645	-0.260363	1.126358	-0.507939	-0.258394	1.127801	-0.596832	-0.258211	1.129950	-0.549369	-0.189289	0.869806	-0.349300	-0.176975	0.811932	-0.342159	-0.113003	0.823854	-0.338660	-0.118168	0.884682	-0.347236	-0.151209	0.545532	-0.366802	-0.130156	0.532154	-0.486276	-0.221992	0.426990	-0.345273	-0.231869	0.386131	-0.352418	-0.171736	0.378380	-0.349308	-0.165629	0.417925	-0.345059	-0.282189	0.161859	-0.427867	-0.152619	0.054432	-0.365513	-0.099119	0.061423	-0.429115	-0.073000	0.047576	-0.423556	-0.190548	0.866376	-0.746238	-0.172825	0.807807	-0.754403	-0.109619	0.820847	-0.754979	-0.118282	0.879981	-0.747228	-0.165341	0.542204	-0.725542	-0.138975	0.537148	-0.603492	-0.230551	0.408228	-0.740275	-0.239921	0.369247	-0.733756	-0.177964	0.360230	-0.741630	-0.177252	0.404049	-0.747653	-0.290069	0.147212	-0.667171	-0.150628	0.051376	-0.731458	-0.101353	0.060635	-0.665138	-0.077990	0.046918	-0.672155	
129	0.6450	-0.182408	1.566111	-0.554888	-0.123718	1.538673	-0.736100	-0.134699	1.543370	-0.358531	-0.041767	1.496569	-0.553837	-0.096452	1.043712	-0.428960	-0.092758	1.038761	-0.668676	-0.164839	1.125767	-0.385735	-0.152710	1.112097	-0.713473	-0.261061	1.121587	-0.507872	-0.259009	1.123004	-0.596758	-0.258965	1.125177	-0.549314	-0.189347	0.864759	-0.349267	-0.176640	0.806989	-0.341984	-0.112747	0.819336	-0.338537	-0.118323	0.880089	-0.347270	-0.149095	0.540715	-0.366234	-0.128165	0.527554	-0.485864	-0.220479	0.422415	-0.345145	-0.230603	0.381625	-0.352419	-0.170499	0.373536	-0.349415	-0.164166	0.413052	-0.345037	-0.282791	0.158185	-0.428839	-0.154028	0.050014	-0.366267	-0.100073	0.057279	-0.430579	-0.073886	0.043813	-0.425121	-0.190387	0.861397	-0.746141	-0.172268	0.802968	-0.754415	-0.109141	0.816433	-0.754949	-0.118215	0.875502	-0.747100	-0.163000	0.537529	-0.726141	-0.137082	0.532551	-0.603962	-0.228839	0.403935	-0.741013	-0.238479	0.364989	-0.734370	-0.176468	0.355556	-0.741844	-0.175457	0.399334	-0.748001	-0.290697	0.143265	-0.667023	-0.151011	0.047375	-0.731033	-0.101467	0.057164	-0.663876	-0.078004	0.043583	-0.670560	
130	0.6500	-0.181348	1.560770	-0.554734	-0.122716	1.533224	-0.735908	-0.133635	1.538034	-0.358540	-0.040833	1.490906	-0.553762	-0.097298	1.038418	-0.428846	-0.093536	1.033497	-0.668613	-0.165535	1.120633	-0.385736	-0.153282	1.106892	-0.713305	-0.261746	1.116512	-0.507810	-0.259618	1.117912	-0.596682	-0.259693	1.120096	-0.549258	-0.189333	0.859468	-0.349231	-0.176214	0.801820	-0.341789	-0.112413	0.814604	-0.338428	-0.118413	0.875281	-0.347324	-0.146890	0.535678	-0.365590	-0.126099	0.522750	-0.485377	-0.219021	0.417686	-0.344996	-0.229425	0.376977	-0.352406	-0.169368	0.368474	-0.349522	-0.162780	0.407944	-0.344994	-0.283892	0.154185	-0.429965	-0.155493	0.045941	-0.366867	-0.100937	0.053694	-0.432032	-0.074619	0.040667	-0.426765	-0.190152	0.856190	-0.746027	-0.171635	0.797909	-0.754433	-0.108599	0.811807	-0.754908	-0.118082	0.870811	-0.746954	-0.160526	0.532648	-0.726791	-0.135060	0.527759	-0.604516	-0.227217	0.399533	-0.741826	-0.237185	0.360642	-0.735004	-0.175112	0.350680	-0.742070	-0.173723	0.394420	-0.748379	-0.291892	0.138991	-0.666767	-0.151416	0.043917	-0.730858	-0.101533	0.054345	-0.662748	-0.077896	0.041005	-0.668956	
131	0.6550	-0.180320	1.555165	-0.554595	-0.121686	1.527518	-0.735721	-0.132582	1.532456	-0.358565	-0.039902	1.484961	-0.553687	-0.098138	1.032882	-0.428707	-0.094294	1.027994	-0.668548	-0.166268	1.115252	-0.385729	-0.153909	1.101411	-0.713145	-0.262421	1.111145	-0.507743	-0.260219	1.112537	-0.596602	-0.260398	1.114717	-0.549198	-0.189244	0.853945	-0.349189	-0.175702	0.796417	-0.341576	-0.112010	0.809661	-0.338336	-0.118441	0.870273	-0.347409	-0.144587	0.530408	-0.364881	-0.123960	0.517751	-0.484810	-0.217650	0.412809	-0.344806	-0.228384	0.372222	-0.352375	-0.168397	0.363230	-0.349659	-0.161496	0.402626	-0.344951	-0.285574	0.149891	-0.431280	-0.156943	0.042461	-0.367275	-0.101625	0.050919	-0.433296	-0.075092	0.038430	-0.428402	-0.189847	0.850760	-0.745899	-0.170928	0.792635	-0.754460	-0.107993	0.806978	-0.754851	-0.117884	0.865920	-0.746773	-0.157892	0.527568	-0.727499	-0.132874	0.522785	-0.605169	-0.225722	0.395070	-0.742674	-0.236100	0.356261	-0.735608	-0.174014	0.345603	-0.742265	-0.172159	0.389295	-0.748794	-0.293736	0.134400	-0.666416	-0.151899	0.041213	-0.731067	-0.101595	0.052384	-0.661804	-0.077669	0.039315	-0.667437	
132	0.6600	-0.179336	1.549310	-0.554474	-0.120632	1.521562	-0.735556	-0.131550	1.526637	-0.358596	-0.038981	1.478743	-0.553614	-0.098952	1.027118	-0.428537	-0.095038	1.022273	-0.668468	-0.167034	1.109631	-0.385698	-0.154598	1.095659	-0.712999	-0.263103	1.105511	-0.507683	-0.260818	1.106893	-0.596515	-0.261091	1.109064	-0.549136	-0.189080	0.848201	-0.349139	-0.175111	0.790789	-0.341354	-0.111543	0.804513	-0.338275	-0.118403	0.865042	-0.347523	-0.142176	0.524902	-0.364127	-0.121728	0.512558	-0.484168	-0.216396	0.407816	-0.344573	-0.227527	0.367372	-0.352406	-0.167640	0.357772	-0.349852	-0.160353	0.397070	-0.344910	-0.287921	0.145319	-0.432766	-0.158352	0.039800	-0.367384	-0.102103	0.049128	-0.434270	-0.075223	0.036989	-0.429846	-0.189479	0.845114	-0.745764	-0.170142	0.787150	-0.754501	-0.107320	0.801948	-0.754756	-0.117628	0.860829	-0.746546	-0.155078	0.522292	-0.728268	-0.130480	0.517634	-0.605934	-0.224382	0.390565	-0.743467	-0.235276	0.351893	-0.736127	-0.173306	0.340361	-0.742385	-0.170808	0.383967	-0.749217	-0.296216	0.129570	-0.666044	-0.152443	0.039283	-0.731536	-0.101789	0.051123	-0.661314	-0.077552	0.038264	-0.666356	
133	0.6650	-0.178413	1.543228	-0.554367	-0.119559	1.515364	-0.735427	-0.130543	1.520579	-0.358619	-0.038071	1.472269	-0.553541	-0.099736	1.021139	-0.428344	-0.095770	1.016344	-0.668369	-0.167832	1.103772	-0.385632	-0.155338	1.089642	-0.712868	-0.263786	1.099617	-0.507609	-0.261430	1.101000	-0.596415	-0.261776	1.103153	-0.549064	-0.188847	0.842238	-0.349082	-0.174438	0.784957	-0.341113	-0.111007	0.799172	-0.338252	-0.118322	0.859627	-0.347704	-0.139628	0.519165	-0.363355	-0.119391	0.507162	-0.483433	-0.215281	0.402723	-0.344335	-0.226881	0.362488	-0.352549	-0.167132	0.352121	-0.350131	-0.159373	0.391296	-0.344885	-0.290842	0.140563	-0.434351	-0.159662	0.038012	-0.367330	-0.102523	0.048084	-0.434687	-0.075299	0.036152	-0.430777	-0.189055	0.839252	-0.745642	-0.169286	0.781468	-0.754569	-0.106579	0.796727	-0.754610	-0.117317	0.855549	-0.746257	-0.152078	0.516841	-0.729075	-0.127827	0.512315	-0.606810	-0.223210	0.386062	-0.744138	-0.234734	0.347593	-0.736501	-0.172983	0.334987	-0.742438	-0.169728	0.378473	-0.749581	-0.299189	0.124724	-0.665719	-0.153147	0.037966	-0.732041	-0.102314	0.050354	-0.661233	-0.077813	0.037696	-0.665760	
134	0.6700	-0.177552	1.536948	-0.554272	-0.118475	1.508938	-0.735352	-0.129574	1.514286	-0.358614	-0.037183	1.465560	-0.553471	-0.100486	1.014960	-0.428124	-0.096497	1.010228	-0.668245	-0.168655	1.097678	-0.385519	-0.156126	1.083366	-0.712765	-0.264484	1.093488	-0.507517	-0.262051	1.094867	-0.596305	-0.262465	1.097007	-0.548982	-0.188554	0.836066	-0.349024	-0.173690	0.778945	-0.340851	-0.110409	0.793641	-0.338271	-0.118206	0.854047	-0.347967	-0.136942	0.513216	-0.362611	-0.116912	0.501573	-0.482611	-0.214296	0.397584	-0.344125	-0.226444	0.357608	-0.352857	-0.166878	0.346302	-0.350529	-0.158562	0.385335	-0.344899	-0.294102	0.135830	-0.435951	-0.160984	0.036916	-0.367279	-0.103077	0.047531	-0.434615	-0.075587	0.035743	-0.431237	-0.188583	0.833190	-0.745556	-0.168362	0.775592	-0.754680	-0.105779	0.791325	-0.754412	-0.116969	0.850061	-0.745878	-0.148927	0.511234	-0.729904	-0.124872	0.506836	-0.607783	-0.222201	0.381603	-0.744641	-0.234444	0.343398	-0.736683	-0.173037	0.329535	-0.742436	-0.168920	0.372891	-0.749903	-0.302441	0.120031	-0.665463	-0.154181	0.037086	-0.732599	-0.103299	0.049957	-0.661230	-0.078482	0.037451	-0.665397	
135	0.6750	-0.176748	1.530504	-0.554185	-0.117387	1.502302	-0.735348	-0.128646	1.507767	-0.358565	-0.036318	1.458646	-0.553401	-0.101223	1.008596	-0.427897	-0.097241	1.003953	-0.668100	-0.169504	1.091344	-0.385343	-0.156959	1.076856	-0.712688	-0.265199	1.087139	-0.507399	-0.262700	1.088516	-0.596177	-0.263168	1.090648	-0.548884	-0.188207	0.829719	-0.348959	-0.172874	0.772754	-0.340566	-0.109739	0.787950	-0.338306	-0.118057	0.848295	-0.348300	-0.134142	0.507098	-0.361917	-0.114223	0.495814	-0.481750	-0.213410	0.392448	-0.343967	-0.226178	0.352791	-0.353353	-0.166827	0.340430	-0.351049	-0.157881	0.379268	-0.344955	-0.297492	0.131239	-0.437518	-0.162471	0.036254	-0.367237	-0.103883	0.047318	-0.434462	-0.076083	0.035576	-0.431464	-0.188074	0.826939	-0.745526	-0.167375	0.769542	-0.754854	-0.104920	0.785750	-0.754183	-0.116588	0.844379	-0.745424	-0.145665	0.505517	-0.730750	-0.121578	0.501217	-0.608832	-0.221303	0.377204	-0.744978	-0.234311	0.339302	-0.736703	-0.173379	0.324081	-0.742394	-0.168335	0.367266	-0.750195	-0.305777	0.115498	-0.665330	-0.155477	0.036484	-0.733173	-0.104616	0.049782	-0.661107	-0.079475	0.037342	-0.665178	
